<?xml version="1.0"?>

<!-- Svg Vector Icons : http://www.onlinewebfonts.com/icon -->

<svg version="1.1" xmlns="http://www.w3.org/2000/svg" xmlns:xlink="http://www.w3.org/1999/xlink" x="0px" y="0px" viewBox="0 0 1000 1000" enable-background="new 0 0 1000 1000" xml:space="preserve" width="1000" height="1000">
<metadata> Svg Vector Icons : http://www.onlinewebfonts.com/icon </metadata>
<g><path d="M365.2,925.2H79.8c-38.5,0-69.8-32.3-69.8-72V79.9C10,40.2,41.3,8,79.8,8h726.7c38.5,0,69.8,32.3,69.8,72v293.3h-69.8V79.9L79.8,77.7v775.5l285.5,2.2L365.2,925.2L365.2,925.2z"></path><path d="M180.3,177.4h490.8v69.8H180.3V177.4L180.3,177.4z"></path><path d="M180.3,346.9H576v69.8H180.3V346.9z"></path><path d="M180.3,516.4h265.6v69.8H180.3V516.4z"></path><path d="M180.3,685.9h265.6v69.8H180.3V685.9z"></path><path d="M987.9,888.5L882.3,691.7c10.9-24.5,17.2-51.6,17.3-80.1c0.4-110-88.5-199.6-198.6-200C591,411.1,501.4,500,501,610.1c-0.1,29.2,6.4,56.7,17.5,81.8L411.1,886.2c-3.5,6.2-2.9,14,1.3,19.6c4.3,5.7,11.5,8.4,18.5,6.8l91.1-20.6l30.8,86.9c2.4,6.8,8.5,11.4,15.6,12.1c0.5,0,0.9,0,1.4,0c6.6,0.1,12.8-3.6,16-9.5l93.9-173.4c6.6,0.7,13,2.1,19.8,2.1c6.2,0,12.1-1.2,18.2-1.8l94.6,174.1c3.2,6,9.3,9.6,15.9,9.5c0.4,0.1,0.9,0,1.4,0c7.1-0.5,13.2-5.2,15.7-11.8l31.4-86.6l90.9,21.1c7,1.7,14.2-0.9,18.5-6.6C990.6,902.5,991.2,894.8,987.9,888.5z M569.1,864.5l-11.3-32c-1.5-4.4-6-6.9-10.6-5.8l-33.8,7.6l47.9-86c17.6,17.8,32,25.5,51.6,36.3L569.1,864.5z M699.6,737.5c-70.1-0.3-127-57.6-126.7-127.8c0.2-70.1,57.5-127,127.7-126.7c70.1,0.2,127,57.5,126.7,127.7C827.1,680.8,769.8,737.6,699.6,737.5z M855.7,840.6c-5.4-1.3-10.7,1.8-12.6,6.8l-13.5,37.7l-51.3-94.3c23.2-12.7,40.1-22,61-42.8l56.2,101.6L855.7,840.6z"></path></g>
</svg>